<?xml version="1.0" encoding="UTF-8" standalone="no"?>
<!-- Created with Inkscape (http://www.inkscape.org/) -->

<svg
   version="1.1"
   id="svg1"
   width="357.33334"
   height="381.33334"
   viewBox="0 0 357.33334 381.33334"
   xmlns="http://www.w3.org/2000/svg"
   xmlns:svg="http://www.w3.org/2000/svg">
  <defs
     id="defs1" />
  <g
     id="g1">
    <path
       style="fill:#000000"
       d="m 61.676575,379.17673 c -3.3,-0.89837 -8.99692,-3.10787 -12.65983,-4.91001 l -6.65983,-3.27661 -8.67351,-8.67351 c -4.77043,-4.77042 -10.09149,-11.57227 -11.82458,-15.1152 -1.73309,-3.54293 -3.97597,-9.53986 -4.98417,-13.32649 l -1.8331,-6.8848 -0.0158,-33.08766 -0.0158,-33.08765 -1.54935,-2.89498 -1.54934,-2.89498 -0.63183,-19.68403 -0.63182,-19.68404 h -3.0765604 -3.07656 l -2.0756,-2.96334 c -1.14159,-1.62984 -2.06642005,-5.07984 -2.05519005,-7.66667 0.0112,-2.58683 0.56022,-5.55621 1.21999005,-6.59862 0.65977,-1.04242 3.80058,-2.24242 6.97958,-2.66667 l 5.7800104,-0.77136 0.67333,-26.00001 0.67333,-26 1.52582,-3.33333 c 0.83919,-1.83333 3.2362,-4.90169 5.32667,-6.81858 2.09047,-1.91689 5.84038,-4.16689 8.33315,-5 l 4.5323,-1.51475 h 39.93197 39.931965 l -2.89277,-4.33334 c -1.59102,-2.38333 -4.1146,-6.96603 -5.60795,-10.18377 l -2.71518,-5.85044 0.14248,-9.360439 0.14248,-9.36043 3.41076,-7.45579 3.41076,-7.4558 13.89117,-14.100985 13.89117,-14.100988 3.53667,-7.725102 3.53667,-7.725102 -0.68949,-7.603767 -0.68948,-7.603766 -2.90759,-5.6993511 c -1.59918,-3.134643 -2.56961,-6.03734 -2.15651,-6.450437 0.4131,-0.41309696 3.30495,0.01278 6.42635,0.946399 3.12139,0.933617 7.47526,2.95149 9.67526,4.484164 2.2,1.532674 5.40849,4.3149371 7.12997,6.1828081 1.72148,1.867871 4.40524,6.096129 5.96392,9.396129 l 2.83396,6 0.0331,9.333334 0.0331,9.333333 -4.33047,9.149861 -4.33047,9.14986 -12.19887,12.18347 c -6.70938,6.70091 -13.67857,14.41761 -15.4871,17.14822 l -3.28824,4.96473 v 6.676229 6.67623 l 3.15385,6.35903 3.15385,6.35904 62.66667,0.66667 62.66666,0.66666 4.5273,2.66667 c 2.49001,1.46667 5.76198,4.32313 7.27105,6.3477 l 2.74377,3.68102 0.5387,8.46011 0.5387,8.4601 14.19024,0.80924 c 7.80464,0.44507 16.59025,1.48242 19.52358,2.30522 2.93333,0.8228 8.49083,3.01921 12.35,4.88092 l 7.01666,3.38493 6.31667,6.91692 c 3.47417,3.80431 7.90913,10.18023 9.85547,14.16871 1.94634,3.98849 4.25957,10.92636 5.1405,15.4175 l 1.60169,8.1657 -0.55985,21.8343 -0.55985,21.8343 -3.0162,8.59471 c -1.65891,4.7271 -5.17984,11.85437 -7.82428,15.83839 -2.64444,3.98403 -8.01641,9.76179 -11.9377,12.83948 l -7.12962,5.59579 -8.29341,2.9086 -8.29341,2.9086 -14.33334,0.85984 -14.33333,0.85984 v 11.01191 11.01192 l -2.512,8.07106 c -1.38159,4.43908 -4.03567,10.64254 -5.89795,13.78546 -1.86228,3.14292 -6.58188,8.81616 -10.48801,12.60719 -3.90612,3.79104 -10.70554,8.7051 -15.10982,10.92014 -4.40428,2.21504 -10.70428,4.64862 -14,5.40795 l -5.99222,1.3806 -78.66667,-0.0574 -78.666665,-0.0574 z M 235.26699,357.24141 c 3.4414,-1.69511 8.75058,-5.50188 11.79819,-8.45949 3.0476,-2.9576 7.12065,-8.77068 9.05122,-12.91797 l 3.51011,-7.54051 0.025,-21.55083 c 0.0138,-11.85295 -0.41047,-21.98845 -0.94274,-22.52333 -0.53228,-0.53488 -1.79759,-0.28383 -2.8118,0.55789 -1.01421,0.84172 -5.32264,2.72722 -9.57429,4.19 l -7.73027,2.6596 H 221.74797 204.9035 l -7.9468,-2.06933 c -4.37074,-1.13813 -10.44652,-3.53396 -13.50174,-5.32407 -3.05522,-1.7901 -8.01038,-5.75965 -11.01147,-8.82121 -3.00109,-3.06157 -6.95398,-8.62717 -8.7842,-12.368 -1.83021,-3.74083 -3.92686,-10.09008 -4.65921,-14.10945 -0.73234,-4.01936 -1.68117,-11.39235 -2.1085,-16.3844 l -0.77697,-9.07646 -3.30582,-1.25687 c -1.8182,-0.69128 -5.66676,-1.25687 -8.55235,-1.25687 h -5.24654 l -2.66666,2.66666 -2.66667,2.66667 -0.0158,9 c -0.009,4.95 -0.83854,12.08989 -1.84408,15.86641 -1.00554,3.77653 -3.52296,9.98015 -5.59426,13.78582 -2.07131,3.80567 -6.94348,9.82342 -10.82705,13.37279 l -7.06103,6.45338 -7.66221,2.99173 -7.662215,2.99172 -20.04954,0.57167 -20.04955,0.57167 -6.61713,-2.00635 c -3.63941,-1.10349 -7.66712,-2.42885 -8.95045,-2.94524 l -2.33333,-0.9389 v 20.7593 20.7593 l 2.73102,7.29932 2.73102,7.29931 7.73146,7.15797 7.73146,7.15796 6.53752,2.19778 6.53752,2.19777 79.999995,-0.2717 80.00001,-0.27171 z m 74.80616,-75.40863 c 3.92661,-1.73653 9.10248,-5.18653 11.50195,-7.66667 2.39947,-2.48013 5.95391,-7.80934 7.89874,-11.84267 l 3.53607,-7.33333 v -25.33334 -25.33333 l -3.82744,-6.90605 c -2.10508,-3.79832 -6.00508,-8.6143 -8.66666,-10.70217 -2.66158,-2.08788 -6.63923,-4.61616 -8.83923,-5.61841 l -4,-1.82227 -14.33334,-0.64682 -14.33333,-0.64682 v 8.00086 8.00086 l 5.16017,0.82514 c 2.83809,0.45383 5.98809,1.82297 7,3.04254 l 1.83983,2.2174 -0.13269,5.99904 -0.1327,5.99905 -2.45548,1.79549 c -1.35051,0.98752 -3.75168,1.79549 -5.33593,1.79549 h -2.88045 l -0.88598,11.66667 c -0.48728,6.41667 -1.2697,22.01667 -1.73871,34.66667 l -0.85273,23 h 12.16932 12.16931 z m -221.578565,-10.18545 7.18199,-1.34277 5.333325,-3.70217 5.33334,-3.70216 3.94139,-7.28839 3.9414,-7.2884 0.47284,-16 0.47284,-16 -2.41424,-4.64009 c -1.32783,-2.55205 -4.36064,-5.93983 -6.73957,-7.5284 -2.37894,-1.58857 -8.128085,-3.55053 -12.775885,-4.35991 -4.6478,-0.80938 -15.0412,-1.4716 -23.09645,-1.4716 -8.05524,0 -18.15015,0.64779 -22.43313,1.43955 -4.28298,0.79175 -9.22384,2.38085 -10.9797,3.53133 -1.75585,1.15048 -4.0618,3.77289 -5.12432,5.82757 l -1.93185,3.73579 v 17.63822 17.63821 l 1.59983,4.76133 c 0.87991,2.61873 3.01093,6.71196 4.7356,9.09607 1.72466,2.3841 5.05474,5.33448 7.40016,6.55639 2.34543,1.22191 6.06441,2.65986 8.26442,3.19545 2.2,0.53559 9.76811,1.03521 16.81801,1.11028 7.04991,0.0751 16.04991,-0.46777 20,-1.2063 z m 155.181985,-1.47379 c 2.2,-1.02282 5.68457,-2.99917 7.74348,-4.39189 2.05891,-1.39272 5.04531,-4.99057 6.63644,-7.99522 l 2.89298,-5.46299 0.48338,-18.75604 0.48338,-18.75604 -2.01479,-4.82207 -2.01479,-4.82207 -3.79861,-1.96433 c -2.08923,-1.08039 -7.34669,-2.62024 -11.68325,-3.4219 -4.33655,-0.80165 -15.24491,-1.45755 -24.2408,-1.45755 -8.99589,0 -19.53569,0.67536 -23.42179,1.5008 -3.8861,0.82544 -8.72468,2.67274 -10.75241,4.10511 -2.02773,1.43238 -4.6975,4.50702 -5.93282,6.83254 l -2.24603,4.22822 0.0167,14.96578 0.0166,14.96578 4.58283,8.98264 4.58283,8.98264 6.37282,3.93456 c 3.50506,2.164 8.60506,4.40231 11.33334,4.97402 2.72827,0.57171 12.1605,0.85907 20.9605,0.63858 l 16,-0.4009 z m -83.33333,-67.74265 c 0,-0.67424 3.03162,-4.54296 6.73693,-8.59716 l 6.73692,-7.37127 7.31309,-2.73618 7.31309,-2.73618 h 29.78235 29.78235 l 5.32562,1.87899 5.32562,1.87899 0.64763,-16.81163 c 0.3562,-9.2464 0.36424,-17.89536 0.0179,-19.21991 l -0.62978,-2.40827 -111.50917,0.34092 -111.509225,0.34091 -0.37283,17.78129 -0.37283,17.78128 4.37283,-0.99867 c 2.40506,-0.54927 16.91406,-0.9169 32.24222,-0.81696 l 27.86939,0.18171 6.977725,2.02848 c 3.83774,1.11566 9.36961,3.98172 12.29304,6.36901 2.92342,2.38729 6.64691,6.25747 8.27441,8.60039 l 2.95909,4.25985 10.87848,-0.72352 10.87848,-0.72351 3.33333,1.37914 c 1.83334,0.75854 3.78334,1.41718 4.33334,1.46367 0.55,0.0465 1,-0.46714 1,-1.14137 z"
       id="path1" />
  </g>
</svg>
